<?xml version="1.0" standalone="no"?>
<!DOCTYPE svg PUBLIC "-//W3C//DTD SVG 20010904//EN"
 "http://www.w3.org/TR/2001/REC-SVG-20010904/DTD/svg10.dtd">
<svg version="1.0" xmlns="http://www.w3.org/2000/svg"
 width="1024.000000pt" height="1024.000000pt" viewBox="0 0 1024.000000 1024.000000"
 preserveAspectRatio="xMidYMid meet">
<metadata>
Created by potrace 1.14, written by Peter Selinger 2001-2017
</metadata>
<g transform="translate(0.000000,1024.000000) scale(0.100000,-0.100000)"
fill="#000000" stroke="none">
<path d="M1026 10209 c-52 -35 -74 -65 -57 -82 7 -7 4 -23 -10 -51 l-21 -41
41 43 c24 26 47 42 57 40 30 -5 27 -26 -6 -43 -18 -9 -29 -19 -27 -22 3 -3 23
4 44 15 21 12 53 28 72 37 l34 17 -49 -56 c-26 -31 -59 -63 -71 -72 -13 -8
-21 -18 -19 -23 3 -4 -6 -24 -19 -44 -14 -20 -25 -44 -25 -53 0 -16 2 -15 23
2 12 10 16 12 10 4 -17 -18 -16 -38 0 -55 11 -11 21 -7 57 21 23 19 48 34 55
34 7 0 31 14 53 30 23 17 42 28 42 26 0 -17 -66 -98 -93 -115 -38 -23 -115
-101 -101 -101 6 0 19 7 30 15 41 31 48 13 8 -23 -58 -52 -113 -167 -59 -122
17 15 19 7 5 -21 -6 -10 -8 -19 -5 -19 13 0 52 24 80 50 41 37 93 66 102 56 4
-4 -1 -14 -11 -22 -17 -12 -18 -14 -3 -14 22 0 22 -3 -7 -53 -28 -49 -51 -138
-38 -146 16 -11 21 -40 12 -72 -5 -18 -8 -34 -6 -36 2 -2 42 55 90 126 47 71
97 138 110 148 13 11 34 39 47 63 31 61 37 28 8 -47 -12 -32 -23 -68 -24 -80
-2 -11 -6 -32 -11 -45 -4 -12 -8 -43 -9 -68 -1 -25 -16 -98 -34 -163 -32 -116
-37 -159 -11 -97 7 17 20 36 30 43 9 7 20 26 25 42 6 20 9 25 12 13 2 -9 -3
-37 -11 -63 -9 -25 -16 -55 -16 -67 0 -11 -8 -27 -17 -34 -17 -12 -17 -13 3
-14 21 0 47 22 57 50 3 9 6 5 7 -10 1 -24 1 -24 15 -6 23 31 27 14 10 -50 -8
-32 -15 -74 -15 -92 0 -29 2 -32 14 -23 19 16 22 10 36 -94 7 -49 28 -135 47
-190 19 -55 50 -156 68 -225 18 -69 52 -174 75 -235 l43 -110 -1 -160 c-1
-240 14 -343 81 -528 14 -40 47 -78 59 -71 7 4 8 2 4 -5 -4 -6 -3 -17 2 -24
14 -18 52 -134 52 -161 0 -13 7 -42 15 -65 8 -23 24 -91 35 -150 26 -138 45
-193 123 -355 35 -72 68 -142 75 -156 11 -23 12 -21 8 20 -2 25 -11 92 -19
150 -22 147 -41 536 -32 650 3 52 9 129 11 170 2 41 11 91 18 111 9 23 16 87
18 178 l3 143 -90 30 c-49 17 -96 35 -102 40 -22 18 -35 90 -36 188 0 135 23
173 133 213 50 18 51 19 -50 -48 -34 -23 -47 -39 -54 -68 -7 -28 -7 -40 2 -46
10 -6 9 -17 -3 -50 -20 -59 -19 -75 10 -109 24 -28 78 -47 197 -66 21 -4 39
-14 43 -24 23 -57 76 -219 95 -287 48 -179 104 -344 138 -409 55 -105 165
-213 272 -265 127 -62 281 -97 510 -115 381 -31 697 -11 990 64 212 55 296
110 381 252 22 38 44 66 49 63 15 -9 66 99 143 305 38 101 124 274 147 295 19
17 22 17 91 -5 41 -14 88 -37 107 -54 40 -35 140 -235 282 -567 112 -261 170
-358 170 -286 0 12 3 32 6 45 6 19 11 22 44 18 21 -3 52 -12 68 -20 98 -51
325 -110 502 -132 193 -23 624 -15 795 15 146 26 290 64 359 95 160 72 270
238 353 536 65 232 112 366 139 391 25 24 206 75 225 63 5 -3 9 -29 9 -57 0
-29 14 -106 30 -172 17 -66 30 -130 30 -143 0 -13 5 -32 11 -44 6 -11 17 -88
25 -171 7 -83 19 -175 25 -204 14 -61 9 -116 -41 -438 -16 -104 -34 -235 -40
-290 -6 -55 -18 -143 -25 -196 -7 -53 -11 -115 -8 -138 4 -27 2 -41 -6 -41
-15 0 -14 -45 1 -70 10 -15 10 -26 0 -53 -7 -18 -12 -44 -12 -56 0 -16 -4 -21
-14 -18 -18 7 -40 -26 -57 -84 -7 -24 -17 -48 -23 -54 -6 -5 -17 -23 -24 -38
l-12 -29 -29 31 c-38 41 -51 39 -48 -6 2 -33 -1 -38 -21 -41 -13 -2 -28 -15
-35 -30 -7 -15 -19 -34 -27 -44 -35 -39 -40 -48 -40 -73 0 -34 -17 -65 -36
-65 -8 0 -19 -11 -24 -24 -9 -26 -30 -44 -30 -27 0 5 5 13 10 16 14 9 12 47
-5 69 -20 27 -38 10 -31 -30 4 -19 0 -56 -8 -86 -8 -29 -17 -66 -20 -81 -9
-39 -24 -25 -32 28 -3 25 -11 48 -16 51 -6 4 -8 -5 -3 -24 12 -58 14 -126 3
-139 -17 -21 -36 -15 -50 15 -8 15 -23 28 -36 30 -20 3 -22 0 -16 -22 4 -19 2
-28 -10 -32 -9 -3 -16 -12 -16 -20 0 -8 -4 -14 -10 -14 -19 0 -10 -49 10 -60
23 -13 26 -1 9 33 -12 22 -12 22 10 3 15 -14 21 -31 21 -60 -1 -36 -2 -38 -12
-21 -15 26 -28 34 -45 28 -7 -3 -16 2 -19 11 -3 9 -10 14 -15 11 -4 -3 -4 -17
1 -30 6 -15 6 -34 0 -47 -8 -20 -9 -18 -9 14 -1 20 -5 40 -11 43 -5 3 -10 -1
-10 -9 0 -23 -17 -19 -23 5 -9 32 -33 18 -28 -17 1 -16 6 -36 10 -44 4 -8 4
-33 1 -54 -4 -35 -7 -37 -19 -23 -16 20 -31 13 -31 -13 0 -10 -6 -20 -12 -23
-10 -3 -10 -9 -1 -28 21 -40 33 -79 25 -79 -7 0 -40 50 -54 83 -4 9 -12 17
-18 17 -11 0 -9 -28 7 -85 4 -13 -7 -6 -30 20 -42 46 -50 29 -17 -32 30 -57
24 -69 -15 -27 -19 20 -35 41 -35 45 0 5 -4 9 -10 9 -12 0 -13 -47 -1 -54 7
-5 41 -95 41 -110 0 -4 -9 -1 -20 6 -11 7 -20 23 -20 35 0 15 -6 23 -16 23
-13 0 -15 -7 -10 -34 6 -29 3 -37 -19 -53 -21 -15 -27 -28 -28 -65 -2 -36 -5
-44 -15 -36 -23 19 -26 -1 -9 -50 18 -49 14 -86 -7 -79 -6 2 -13 14 -14 28 -6
40 -22 47 -22 9 1 -36 17 -68 34 -66 14 1 26 -49 30 -131 3 -40 12 -88 21
-107 22 -46 17 -70 -17 -74 -22 -3 -29 4 -49 43 -28 57 -49 76 -49 47 0 -11 4
-31 9 -44 4 -13 11 -54 15 -92 l7 -69 -20 24 -20 24 -1 -25 -1 -25 -20 28
c-25 32 -30 33 -47 7 -10 -17 -9 -26 10 -60 26 -45 19 -60 -16 -36 -34 21 -39
8 -20 -54 18 -60 13 -76 -11 -31 -19 38 -38 41 -29 4 6 -22 4 -25 -10 -20 -21
8 -20 -1 1 -25 14 -15 15 -21 4 -27 -11 -7 -10 -14 4 -35 16 -24 16 -26 1 -32
-11 -4 -26 2 -40 15 -43 40 -51 26 -46 -84 l1 -40 -30 35 c-17 19 -30 38 -31
43 0 4 -6 7 -13 7 -8 0 -30 16 -50 35 l-37 36 0 -26 c0 -14 0 -27 0 -30 0 -3
3 -5 6 -4 13 2 66 -58 79 -88 8 -18 18 -33 23 -33 12 0 47 -78 39 -86 -3 -4
-14 10 -23 29 -16 34 -44 57 -44 37 0 -19 -21 -10 -31 14 -15 32 -49 31 -49
-1 0 -26 -18 -31 -26 -8 -4 8 -12 15 -19 15 -21 0 -26 -30 -11 -61 14 -28 13
-30 -10 -46 -22 -14 -23 -17 -9 -33 8 -9 15 -23 15 -31 0 -8 7 -23 15 -33 16
-21 21 -81 6 -72 -4 3 -11 19 -14 35 -3 16 -12 35 -19 42 -21 22 -58 89 -58
105 0 9 -6 14 -12 11 -19 -6 -12 -57 12 -89 24 -32 25 -38 6 -38 -8 0 -17 9
-21 19 -3 11 -12 18 -20 15 -7 -3 -16 -1 -19 5 -5 7 -13 7 -25 -1 -17 -11 -18
-15 -5 -51 8 -22 14 -51 13 -66 -1 -25 -1 -24 -16 9 -8 19 -20 46 -25 60 -11
26 -12 25 -23 -23 -5 -25 -8 -27 -23 -16 -15 12 -15 12 1 -7 9 -11 17 -27 16
-35 0 -8 -4 -6 -9 6 -7 19 -8 18 -14 -5 -4 -14 -16 -31 -26 -38 -16 -10 -20
-8 -25 8 -4 11 -12 20 -19 20 -7 0 -18 10 -24 23 -8 16 -11 18 -11 5 -1 -9 10
-25 24 -36 25 -20 33 -42 15 -42 -5 0 -10 -10 -11 -22 0 -13 -3 -17 -6 -10 -2
6 -11 12 -19 12 -9 0 -13 -4 -9 -9 13 -22 -19 -22 -35 -1 -10 13 -22 20 -29
16 -6 -4 -11 -1 -11 8 0 23 -42 59 -51 44 -5 -8 -12 -2 -20 17 -12 28 -13 28
-16 8 -3 -12 0 -39 6 -60 7 -25 7 -39 1 -41 -6 -2 -10 -13 -10 -25 -1 -23 -29
-81 -30 -60 0 6 -7 19 -16 28 -13 13 -19 14 -25 4 -6 -10 -12 -9 -28 5 -12 11
-21 25 -21 33 0 7 -4 13 -10 13 -6 0 -6 -9 0 -26 6 -14 10 -40 10 -57 l0 -32
-22 38 c-23 39 -38 48 -38 22 0 -9 -7 -27 -16 -40 -13 -20 -19 -22 -35 -12
-10 6 -24 24 -30 39 -6 16 -17 28 -25 28 -7 0 -15 8 -19 19 -3 10 -14 26 -25
36 -18 16 -20 16 -20 2 0 -9 6 -20 13 -24 20 -12 57 -69 57 -87 0 -25 -15 -19
-30 12 l-13 27 -8 -25 c-8 -28 -9 -27 -14 15 -1 17 -9 44 -15 60 l-13 30 -13
-40 c-7 -22 -13 -51 -14 -65 l-1 -25 -19 24 c-24 28 -26 83 -4 101 18 16 15
65 -5 65 -8 0 -16 -9 -17 -20 -7 -51 -14 -88 -18 -92 -11 -12 -26 38 -17 56
10 18 6 31 -11 31 -4 0 -8 -15 -8 -34 0 -72 -21 -86 -45 -30 -8 21 -19 33 -25
29 -6 -4 -9 -13 -6 -21 3 -8 -1 -14 -9 -14 -9 0 -15 9 -15 22 0 25 -38 108
-50 108 -4 0 -10 -10 -14 -22 -5 -22 -6 -22 -19 -4 -13 18 -14 18 -21 -8 -4
-15 -4 -31 -1 -36 13 -21 -13 -9 -28 12 l-16 23 0 -25 c0 -14 4 -34 8 -45 4
-11 6 -28 3 -38 -7 -25 -42 76 -42 120 0 23 -6 36 -17 40 -10 4 -23 12 -28 17
-15 16 -44 105 -50 156 -3 25 -8 58 -10 73 -6 39 18 30 25 -8 3 -16 10 -30 17
-32 20 -7 25 35 9 68 -9 17 -13 36 -9 42 3 5 1 7 -4 4 -7 -4 -10 3 -9 18 l1
24 31 -30 c23 -22 33 -27 37 -17 3 8 9 4 16 -13 7 -14 21 -30 31 -37 18 -11
18 -9 8 20 -9 24 -8 33 0 36 7 2 10 7 7 12 -3 5 0 21 6 37 l11 28 18 -22 c16
-20 21 -21 42 -10 14 7 22 19 20 29 -4 21 20 48 41 48 11 0 14 14 14 57 0 41
5 59 17 68 9 7 16 17 16 24 0 6 7 11 15 11 8 0 15 6 15 14 0 7 6 19 14 25 8 7
12 21 9 31 -3 12 0 20 7 20 8 0 10 8 7 21 -4 16 -3 18 8 9 7 -6 24 -12 37 -14
13 -1 29 -6 36 -10 21 -13 13 7 -15 36 -15 15 -22 28 -17 28 17 0 9 35 -14 65
-20 25 -21 30 -8 37 22 12 8 40 -15 33 -11 -4 -19 -2 -19 5 0 6 5 8 11 4 7 -4
10 -1 7 7 -3 8 -15 13 -27 11 -13 -2 -28 4 -35 13 -11 15 -13 15 -25 1 -15
-18 -41 -22 -41 -6 0 19 -38 47 -64 47 l-26 1 21 -29 c14 -21 16 -29 7 -29 -7
0 -19 10 -27 21 -10 17 -15 19 -21 8 -7 -11 -10 -10 -16 4 -5 13 -15 16 -45
12 -21 -3 -41 0 -44 5 -4 6 -12 7 -18 3 -16 -10 -97 -12 -97 -2 0 4 -13 2 -30
-4 -16 -6 -30 -17 -30 -24 0 -21 -21 -15 -27 7 -4 13 -9 17 -17 12 -6 -5 -37
-6 -69 -3 -42 5 -61 4 -69 -6 -6 -7 -19 -11 -29 -8 -9 3 -20 2 -23 -4 -3 -5
-31 -9 -62 -9 -30 0 -60 -4 -67 -11 -6 -6 -19 -11 -28 -11 -9 0 -19 -6 -22
-14 -3 -8 -26 -24 -51 -37 -41 -20 -59 -39 -38 -39 4 0 13 -14 20 -30 8 -17
21 -30 32 -30 12 0 18 -8 18 -26 0 -32 19 -46 50 -39 25 6 24 -3 -6 -38 -14
-16 -13 -17 19 -11 19 4 31 4 28 0 -4 -4 -3 -22 1 -41 7 -29 4 -36 -15 -49
-13 -9 -36 -27 -52 -42 -15 -14 -36 -33 -45 -41 -22 -20 -16 -28 10 -14 27 14
83 3 104 -21 13 -15 15 -26 7 -45 -6 -16 -6 -31 1 -41 5 -10 10 -12 10 -4 0
17 20 15 20 -2 0 -34 20 -23 55 30 39 58 53 66 35 19 -9 -23 -8 -26 4 -22 12
5 14 0 9 -23 -3 -18 0 -36 7 -45 14 -17 6 -50 -10 -40 -5 3 -10 1 -10 -4 0 -6
-6 -11 -14 -11 -15 0 -31 -116 -19 -146 5 -13 3 -16 -9 -12 -22 9 -39 -5 -42
-35 -4 -35 -16 -47 -16 -16 0 19 -2 21 -10 9 -5 -8 -10 -28 -10 -45 0 -16 -4
-36 -9 -44 -13 -20 -28 13 -37 77 -3 28 -11 49 -16 46 -5 -3 -6 -29 -3 -59 7
-50 6 -53 -23 -74 l-30 -21 -8 32 c-7 31 -8 30 -22 -32 -16 -74 -20 -80 -32
-60 -7 11 -10 6 -11 -20 0 -19 -4 -44 -8 -55 -7 -17 -10 -14 -20 20 -16 58
-31 78 -31 42 0 -40 -39 -114 -51 -96 -5 8 -9 24 -9 37 0 12 -4 22 -9 22 -5 0
-13 12 -18 27 l-10 28 -18 -28 c-13 -21 -15 -31 -6 -40 17 -17 14 -24 -17 -35
l-29 -10 1 67 c1 52 -2 66 -14 66 -8 0 -16 -11 -18 -25 -2 -14 -8 -29 -14 -35
-7 -7 -9 3 -4 33 7 44 -4 55 -24 25 -10 -16 -11 -15 -7 5 6 27 -7 28 -40 2
-27 -21 -43 -25 -43 -11 0 5 8 11 19 14 12 3 20 16 23 38 7 44 1 50 -22 19
-53 -71 -47 -70 -55 -15 -9 72 -17 86 -24 45 -5 -27 -11 -36 -29 -38 -21 -3
-23 0 -17 20 15 53 28 78 41 78 8 0 14 10 14 23 -1 20 -3 20 -29 -11 -25 -29
-29 -31 -41 -17 -12 15 -16 13 -32 -17 l-19 -33 5 39 c3 21 12 46 21 56 8 9
15 31 15 48 0 18 5 32 10 32 6 0 10 7 10 15 0 13 -4 14 -21 5 -11 -7 -18 -14
-15 -17 3 -3 -1 -12 -9 -20 -8 -8 -15 -30 -15 -49 0 -21 -4 -33 -10 -29 -5 3
-10 21 -10 38 l-1 32 -19 -24 -20 -23 0 41 c0 30 4 41 15 41 10 0 15 10 15 29
0 36 -19 51 -27 22 -5 -20 -6 -20 -18 -4 -13 17 -9 43 8 54 5 4 7 11 3 17 -9
15 -49 6 -64 -15 -14 -20 -13 -22 -17 44 -2 29 -6 57 -10 63 -9 14 -25 2 -25
-19 0 -17 -29 -51 -43 -51 -3 0 -9 17 -13 38 -12 66 -36 93 -49 54 -3 -11 -16
-24 -30 -30 l-25 -11 4 59 c3 69 -7 94 -28 68 -7 -10 -25 -18 -40 -18 -22 0
-26 4 -26 30 0 17 -4 30 -10 30 -5 0 -10 5 -10 11 0 5 4 8 9 5 5 -4 16 -3 25
0 29 11 -2 36 -36 29 -28 -7 -36 2 -19 20 14 16 22 79 11 95 -7 11 -11 9 -19
-12 -9 -25 -55 -68 -72 -68 -5 0 -9 9 -9 19 0 11 -5 21 -12 23 -7 3 -11 20
-10 45 3 54 -12 95 -34 86 -14 -5 -15 -3 -5 16 7 12 9 31 6 41 -4 12 -2 20 4
20 6 0 11 5 11 11 0 5 -5 7 -10 4 -22 -14 -50 6 -50 35 l0 29 -37 -21 c-27
-16 -34 -18 -25 -6 13 16 24 142 14 153 -3 3 -18 -7 -34 -22 l-29 -27 15 29
c7 17 16 51 20 78 5 42 3 47 -14 47 -10 0 -22 -4 -25 -10 -9 -15 -25 -12 -25
5 0 8 9 23 20 32 26 23 25 33 -4 33 -27 0 -40 27 -37 74 2 16 -2 26 -7 22 -15
-9 -21 16 -10 37 10 20 -5 71 -29 95 -7 7 -13 20 -13 28 0 9 -5 24 -11 35 -10
20 -11 20 -24 2 -11 -15 -14 -16 -18 -3 -3 8 -11 35 -18 59 -8 26 -20 46 -31
49 -14 3 -18 15 -18 56 0 94 -15 116 -50 74 -17 -21 -19 -22 -26 -5 -4 12 1
26 17 43 l23 25 -22 6 c-12 3 -22 8 -22 12 0 3 -11 19 -25 35 -14 16 -25 39
-25 51 0 32 -11 37 -33 18 -20 -18 -20 -17 -14 20 3 20 2 37 -3 37 -5 0 -12
-17 -15 -37 -11 -67 -14 -78 -29 -98 -13 -18 -14 -13 -11 45 2 36 9 80 16 97
12 30 11 34 -9 53 -12 12 -22 29 -22 40 0 10 -5 22 -10 25 -14 9 -49 81 -66
137 -12 39 -19 48 -44 53 -35 8 -45 23 -55 83 -4 23 -12 42 -19 42 -22 0 -53
43 -81 109 -15 36 -37 79 -49 95 -12 17 -38 78 -56 136 -19 58 -37 110 -41
115 -4 6 -11 35 -15 65 -4 30 -10 60 -14 65 -5 6 -13 26 -18 45 -16 55 -5
-101 24 -330 28 -217 32 -356 12 -398 -7 -15 -29 -35 -48 -44 -19 -9 -93 -44
-163 -77 -182 -87 -240 -134 -451 -376 -68 -77 -125 -158 -193 -270 -52 -88
-116 -187 -141 -220 -25 -33 -63 -95 -83 -137 -21 -42 -53 -98 -72 -125 -88
-125 -177 -336 -208 -493 -18 -93 -6 -434 21 -580 12 -63 26 -146 31 -185 20
-145 29 -178 66 -242 21 -35 50 -85 65 -111 23 -38 28 -59 28 -115 l0 -68 86
-88 c195 -201 193 -241 -19 -367 -62 -36 -150 -94 -197 -128 -47 -34 -111 -80
-143 -101 -31 -21 -88 -66 -126 -100 -38 -34 -104 -82 -147 -105 -44 -24 -137
-77 -209 -118 -72 -41 -165 -93 -208 -115 l-77 -39 0 -674 0 -674 5120 0 5120
0 0 1144 0 1144 -47 32 c-27 17 -95 54 -153 82 -183 87 -433 205 -485 228 -27
12 -79 41 -115 64 -36 23 -74 46 -85 52 -30 17 -48 79 -41 149 3 33 29 137 57
230 83 277 88 304 100 516 10 180 9 209 -10 365 -32 256 -51 308 -209 594
-125 225 -293 452 -537 725 -94 105 -346 327 -464 408 -136 94 -145 106 -131
177 7 34 8 106 4 185 -5 110 -3 149 16 255 26 143 48 195 93 218 18 9 50 35
72 57 33 33 46 58 67 130 52 171 96 360 108 455 15 129 18 140 34 140 19 0 28
-56 28 -192 0 -188 -31 -296 -138 -483 -47 -81 -53 -97 -54 -155 -3 -91 -4
-88 37 -99 28 -8 42 -7 58 3 52 34 171 332 194 486 6 41 45 210 87 375 41 165
76 322 77 350 l2 49 -55 1 c-52 0 -55 1 -58 27 -2 15 4 41 14 60 20 38 28 118
12 118 -12 0 -6 231 7 262 4 10 16 16 33 15 25 -2 27 3 48 83 13 47 23 108 24
135 0 28 5 67 11 88 8 28 7 47 -1 70 -21 56 -28 97 -18 97 5 0 7 8 4 18 -2 9
-8 49 -11 87 l-6 70 20 -25 21 -25 -10 35 c-6 19 -10 38 -10 41 0 12 55 -4 66
-19 6 -8 16 -12 23 -8 7 5 19 -11 34 -43 25 -57 57 -71 57 -25 0 21 3 24 14
15 11 -9 15 -7 20 11 3 13 6 36 6 52 0 22 3 26 13 17 8 -6 24 -12 36 -14 12
-2 40 -23 61 -48 31 -34 39 -40 40 -25 0 20 0 20 16 0 15 -18 15 -18 9 9 -7
33 1 34 26 5 10 -13 18 -18 19 -11 0 6 -14 27 -31 45 -49 52 -87 148 -60 148
5 0 19 -12 30 -26 31 -40 25 -18 -9 37 -17 26 -30 51 -29 55 1 5 -14 43 -34
84 -48 96 -49 112 -5 89 18 -9 19 -8 13 10 -4 12 -2 21 4 21 6 0 11 -12 11
-27 0 -28 20 -71 20 -45 0 22 17 13 32 -19 25 -50 29 -9 5 45 -16 39 -18 54
-10 76 8 22 7 34 -9 58 -10 17 -23 58 -29 93 -9 55 -8 66 8 88 10 14 25 40 33
56 8 17 21 34 27 38 7 4 13 15 13 23 0 9 6 21 13 28 18 18 36 4 71 -56 15 -27
29 -48 31 -48 2 0 -3 24 -11 53 -17 64 -17 67 1 43 9 -12 15 -15 15 -7 0 11 3
11 17 0 15 -13 16 -10 10 28 -4 23 -16 62 -27 88 -11 26 -20 55 -20 65 0 10
-4 22 -10 25 -21 13 -9 23 24 21 l34 -3 -21 36 c-11 20 -28 45 -37 56 -29 34
-54 84 -47 91 4 4 18 -3 32 -16 32 -30 32 -14 0 30 -14 19 -25 40 -25 47 0 8
-7 25 -16 38 -14 22 -14 26 -1 31 12 4 11 11 -7 45 l-21 39 -4091 0 -4091 0
-47 -31z m3864 -378 c0 -14 31 -22 45 -11 15 13 25 3 25 -27 0 -12 4 -23 9
-23 5 0 11 -10 14 -22 4 -12 9 -19 12 -16 4 3 2 15 -3 25 -7 12 -7 25 -1 34 7
11 9 11 9 0 0 -8 6 -11 18 -6 44 17 112 24 128 13 6 -5 24 -4 40 2 15 6 38 9
51 5 15 -3 25 1 32 12 9 16 12 16 21 3 8 -12 13 -13 29 -3 17 11 24 8 47 -17
20 -20 32 -26 43 -20 20 10 78 7 109 -6 21 -9 22 -11 8 -23 -9 -8 -16 -17 -16
-22 0 -15 32 -10 52 8 17 15 18 15 18 0 0 -20 4 -21 31 -7 21 12 26 1 7 -18
-18 -18 30 -16 66 3 15 8 40 15 55 15 25 -1 26 -1 6 -16 -19 -16 -19 -16 10
-11 36 6 87 -2 80 -13 -8 -13 29 -21 64 -15 38 7 42 -11 5 -26 -15 -5 -25 -12
-22 -15 3 -2 17 0 32 5 17 7 26 7 26 1 0 -6 12 -10 27 -10 21 0 24 -3 15 -12
-16 -16 -15 -28 3 -28 9 0 12 -6 9 -15 -4 -8 -1 -15 6 -15 6 0 9 -4 6 -9 -4
-5 12 -12 34 -16 22 -4 38 -12 37 -18 -1 -7 7 -11 18 -9 18 2 19 2 2 -8 -23
-14 -13 -30 14 -23 14 4 25 0 30 -10 5 -9 17 -13 28 -10 10 3 22 0 25 -6 4 -6
16 -11 27 -11 11 0 27 -7 36 -15 9 -9 24 -13 37 -10 18 5 19 5 4 -5 -10 -6
-18 -15 -18 -19 0 -11 58 -25 88 -22 26 2 28 -7 5 -25 -16 -11 -16 -13 10 -25
29 -13 34 -25 15 -32 -9 -3 -7 -9 7 -20 13 -10 25 -12 35 -7 9 5 35 6 57 3 41
-5 41 -6 22 -26 -10 -11 -31 -29 -46 -39 l-28 -18 32 0 c31 0 31 -1 20 -30 -7
-17 -21 -33 -32 -36 -12 -3 -27 -14 -34 -26 -7 -11 -8 -17 -2 -13 6 3 11 0 11
-7 0 -7 -19 -23 -42 -36 -34 -17 -59 -22 -118 -22 -86 0 -187 -30 -292 -86
-28 -15 -78 -20 -62 -5 5 4 31 16 57 26 27 10 51 26 54 34 4 9 15 26 25 37 19
21 19 21 -9 16 -15 -3 -36 -16 -46 -29 -10 -12 -27 -23 -37 -23 -9 0 -23 -7
-30 -15 -7 -8 -19 -15 -27 -15 -8 0 -24 -10 -36 -23 -12 -13 -16 -16 -9 -7 16
22 15 27 -5 27 -33 2 -80 -18 -103 -42 -13 -14 -31 -25 -39 -25 -9 0 -27 -9
-40 -19 -21 -16 -27 -17 -38 -5 -8 8 -11 20 -7 26 4 7 -2 5 -12 -6 -11 -11
-15 -20 -8 -22 14 -6 3 -76 -14 -82 -6 -2 -12 2 -13 10 0 7 -5 2 -10 -12 l-10
-25 -19 23 c-22 27 -30 28 -30 2 l0 -20 -20 20 c-11 11 -20 26 -20 33 0 7 -6
21 -12 30 -11 15 -13 11 -16 -29 -2 -30 1 -44 8 -39 15 9 12 -11 -3 -24 -17
-13 -27 -5 -27 23 0 12 -5 28 -11 36 -7 11 -9 -1 -7 -45 3 -56 2 -60 -19 -59
-14 0 -22 -5 -21 -15 3 -43 -2 -51 -27 -45 -21 5 -25 3 -25 -16 0 -11 4 -19 9
-16 5 3 11 -3 14 -14 3 -11 1 -20 -4 -20 -5 0 -9 6 -9 12 0 7 -7 2 -16 -10
-15 -22 -17 -22 -35 -6 -12 11 -27 14 -44 10 -18 -5 -27 -2 -31 8 -5 12 -9 13
-25 3 -15 -9 -20 -22 -19 -52 1 -22 1 -45 1 -51 -2 -21 -64 -74 -87 -74 -13 0
-25 -4 -28 -8 -3 -5 -19 -9 -36 -10 -17 0 -44 -4 -60 -7 -61 -13 -148 31 -109
56 9 6 3 7 -18 5 -21 -3 -38 2 -52 15 -12 11 -27 19 -34 18 -25 -3 -35 1 -41
18 -4 9 -2 19 3 22 18 12 -1 62 -28 74 -41 18 -73 45 -61 52 18 11 11 27 -10
20 -11 -4 -20 -2 -20 4 0 6 5 11 10 11 6 0 10 5 10 10 0 6 -7 10 -16 10 -13 0
-14 3 -4 15 13 16 0 25 -43 30 -12 1 -25 3 -29 4 -3 0 -22 17 -42 35 -20 20
-50 38 -71 42 -19 3 -35 10 -35 14 0 4 -19 10 -42 13 -24 3 -44 11 -46 16 -2
6 -19 11 -38 11 -24 0 -34 5 -34 15 0 17 -18 18 -75 5 -30 -7 -42 -6 -50 4 -6
8 -43 16 -90 20 -114 9 -120 10 -220 40 -54 16 -91 22 -93 16 -2 -6 -11 -6
-24 1 -14 7 -23 8 -27 1 -6 -10 -97 1 -109 13 -3 3 -11 0 -17 -5 -9 -7 -22 -7
-41 0 -16 6 -45 10 -66 9 -20 -2 -40 0 -44 4 -4 4 -23 7 -41 7 -20 0 -32 4
-28 10 3 6 -1 10 -9 10 -9 0 -16 5 -16 11 0 5 -12 9 -27 8 -45 -4 -153 13
-153 24 0 42 -358 -110 -424 -181 -17 -19 -44 -40 -61 -49 -56 -29 -134 -93
-172 -142 -70 -89 -179 -236 -188 -250 -12 -21 39 -6 84 25 19 13 49 24 66 25
35 1 82 17 53 18 -34 2 -17 16 50 43 57 23 87 27 197 32 90 3 139 1 159 -8
l30 -12 -21 -21 c-12 -12 -44 -25 -75 -31 -231 -42 -303 -57 -373 -74 -44 -10
-88 -23 -97 -29 -10 -5 -27 -9 -38 -9 -11 0 -36 -6 -54 -14 l-33 -14 0 42 c0
46 28 113 81 196 20 30 36 58 36 62 0 11 -18 10 -25 -2 -3 -5 -11 -10 -16 -10
-14 0 0 42 19 58 9 6 12 12 8 12 -5 0 -3 7 4 15 8 9 10 29 7 50 -4 24 0 41 12
57 23 31 71 133 71 152 0 8 42 50 93 92 50 43 97 83 102 89 6 6 23 25 39 42
27 30 28 32 6 26 -23 -6 -23 -6 4 30 31 40 43 45 48 22 2 -11 9 -8 27 11 l24
25 -29 -7 c-22 -5 -26 -4 -18 5 6 7 18 13 25 15 22 3 48 20 48 31 0 6 9 10 18
11 32 2 152 87 154 108 1 20 57 57 91 60 18 2 41 7 51 11 10 4 20 5 23 2 3 -3
24 1 46 9 22 8 51 14 64 14 13 0 27 6 31 13 4 8 22 17 38 21 29 6 29 6 10 -10
-20 -16 -20 -16 2 -9 12 3 31 1 43 -5 22 -12 27 -1 9 17 -9 9 -5 14 15 19 15
3 25 9 22 12 -3 3 5 10 18 17 23 12 99 7 124 -9 22 -14 73 -25 67 -15 -4 5
-15 9 -25 9 -10 0 -22 4 -25 10 -4 6 18 8 60 4 42 -3 65 -1 65 6 0 5 -12 10
-27 10 -36 0 -73 10 -73 20 0 11 87 23 102 14 8 -5 6 -10 -8 -14 -28 -10 68
-23 109 -15 21 4 27 3 18 -3 -10 -7 0 -14 38 -27 29 -9 55 -14 58 -11 4 3 1 6
-5 6 -7 0 -12 5 -12 11 0 7 10 9 25 7 14 -3 25 -1 25 6 0 6 6 4 13 -5 8 -10
20 -13 37 -8 14 4 21 8 15 9 -5 1 -1 5 10 10 13 5 26 3 37 -8 16 -13 18 -13
24 2 3 9 10 16 16 16 5 0 7 -4 4 -9 -3 -5 1 -12 10 -15 24 -9 74 -7 74 3 0 12
96 19 138 10 42 -9 36 -3 -25 27 -26 13 -40 24 -30 24 9 0 17 5 17 10 0 13 49
13 90 -2 28 -9 35 -9 46 7 12 16 15 16 43 2 18 -9 33 -11 39 -5 5 5 32 10 60
11 41 2 51 5 47 17 -3 8 4 21 15 28 17 10 20 10 20 -3 0 -8 -6 -15 -12 -15
-34 -1 27 -21 78 -26 l58 -5 -19 21 c-31 35 -4 46 34 14 18 -14 29 -29 26 -32
-2 -3 4 -11 15 -19 21 -15 51 -4 77 27 7 8 13 11 13 7 0 -5 8 -1 17 9 13 13
14 19 5 22 -14 4 -16 22 -2 22 6 0 10 -4 10 -9z m-1207 -85 c4 -10 1 -13 -8
-9 -8 3 -12 9 -9 14 7 12 11 11 17 -5z m141 -2 c22 -8 21 -44 -1 -44 -24 0
-37 11 -41 33 -3 17 14 22 42 11z m-309 -34 c-3 -5 -12 -10 -20 -10 -8 0 -17
5 -20 10 -4 6 5 10 20 10 15 0 24 -4 20 -10z m3739 -36 c6 -10 12 -21 13 -23
2 -2 9 2 17 8 12 10 23 0 64 -56 28 -37 64 -86 81 -108 73 -97 99 -135 142
-205 25 -41 53 -91 61 -110 19 -41 59 -207 88 -365 11 -60 24 -126 29 -145 21
-79 33 -210 21 -210 -6 0 -10 4 -10 10 0 5 -13 25 -30 43 -16 19 -30 43 -30
52 0 17 -58 101 -106 155 -58 65 -101 117 -117 142 -9 14 -39 41 -67 59 -27
18 -50 36 -50 41 0 4 -4 8 -10 8 -11 0 -46 27 -69 54 -33 39 -76 76 -88 76 -6
0 -18 6 -25 13 -47 46 -72 55 -145 52 -40 -2 -73 0 -73 5 0 9 42 26 89 35 25
5 30 10 20 16 -11 8 -6 17 23 42 23 21 34 38 29 45 -5 9 -15 6 -34 -12 -17
-16 -33 -22 -47 -19 -25 7 -25 14 1 47 12 15 20 28 18 29 -33 18 -44 27 -41
37 1 6 -7 14 -18 17 -20 5 -18 9 19 45 46 44 51 58 19 58 -41 0 -51 15 -21 30
16 7 23 15 16 17 -22 8 -14 29 14 42 20 9 24 15 14 21 -17 10 -6 30 16 30 9 0
25 8 36 17 18 17 19 17 32 0 15 -21 31 -22 39 -2 6 16 44 36 60 31 5 -1 14
-11 20 -22z m-4117 -8 c-4 -11 -1 -13 11 -9 9 3 14 2 9 -2 -4 -5 -30 -10 -57
-12 -39 -2 -48 0 -44 12 3 7 20 16 37 18 18 2 36 5 41 5 4 1 6 -5 3 -12z
m4903 -386 c1 -19 34 -60 49 -60 6 0 11 -6 11 -13 0 -7 11 -28 25 -47 14 -19
25 -44 25 -57 0 -13 19 -42 47 -70 25 -26 41 -38 34 -25 -7 13 -11 31 -8 40 3
15 43 -59 90 -168 22 -50 49 -161 42 -169 -9 -8 -34 27 -42 58 -8 33 -71 138
-114 191 -20 25 -51 73 -69 108 -18 34 -36 64 -40 67 -10 6 -70 159 -70 177 0
18 20 -12 20 -32z m-1408 -105 c24 -10 16 -34 -20 -55 -39 -24 -41 -33 -5 -19
15 6 24 7 20 2 -4 -4 9 -13 30 -20 21 -7 28 -11 16 -9 -12 2 -30 -2 -40 -10
-16 -12 -16 -15 -3 -24 12 -8 11 -10 -6 -10 -12 0 -43 -3 -69 -7 -37 -5 -46
-3 -41 6 5 7 17 16 28 20 21 7 21 8 -2 29 -27 25 -29 22 35 49 27 12 51 27 54
35 3 11 1 11 -12 -1 -10 -8 -27 -11 -42 -7 -21 5 -23 9 -13 20 13 14 39 14 70
1z m-5232 -14 c0 -6 -4 -13 -10 -16 -5 -3 -10 1 -10 9 0 9 5 16 10 16 6 0 10
-4 10 -9z m5793 -85 c82 -37 73 -60 -14 -36 -38 11 -112 63 -103 73 7 7 46 -5
117 -37z m1068 -249 c41 -63 82 -164 99 -242 6 -27 13 -59 16 -70 3 -11 -7 3
-21 30 -15 28 -33 57 -40 65 -19 21 -111 229 -120 271 -7 32 -6 33 10 19 10
-8 35 -41 56 -73z m-5234 -271 c4 -3 -14 -6 -38 -6 -24 0 -55 -3 -68 -7 -22
-6 -23 -5 -10 9 10 12 28 15 62 13 27 -2 51 -6 54 -9z m4737 -161 c3 -8 1 -15
-4 -15 -6 0 -10 7 -10 15 0 8 2 15 4 15 2 0 6 -7 10 -15z m286 -370 c0 -14 -4
-25 -10 -25 -11 0 -14 33 -3 43 11 11 13 8 13 -18z m-4834 -28 c8 3 14 0 14
-6 0 -6 -7 -11 -15 -11 -8 0 -15 -2 -15 -4 0 -2 -3 -11 -6 -19 -4 -12 2 -13
36 -7 37 7 42 5 61 -21 20 -29 20 -29 0 -29 -11 0 -32 5 -48 12 -15 6 -32 10
-37 9 -4 -1 -13 5 -20 14 -6 9 -22 14 -36 13 -20 -2 -25 1 -25 21 0 18 6 25
24 28 14 2 27 6 30 8 2 3 9 1 14 -4 5 -5 16 -7 23 -4z m1249 -66 c-10 -9 -25
14 -24 37 l1 27 13 -30 c7 -16 12 -32 10 -34z m3066 -17 c11 -24 19 -50 16
-56 -2 -7 -21 21 -42 62 -29 58 -33 71 -17 56 12 -10 31 -38 43 -62z m-4916
-161 c11 0 61 -6 110 -13 110 -16 152 -15 171 1 12 10 17 10 23 0 11 -18 66
-17 95 2 31 21 46 21 46 2 0 -8 5 -15 10 -15 6 0 13 7 16 15 8 21 57 19 108
-5 41 -18 121 -21 147 -4 6 3 45 8 87 9 42 2 93 6 113 9 44 6 84 -13 84 -39 0
-15 8 -21 33 -23 19 -2 32 1 32 8 0 7 7 5 16 -4 8 -9 20 -16 25 -16 5 0 7 -18
4 -39 -4 -38 -3 -41 38 -63 27 -15 42 -30 42 -43 0 -18 7 -20 90 -20 80 0 96
3 143 28 28 16 52 32 52 36 0 4 6 16 14 26 12 17 16 18 31 5 10 -8 34 -15 55
-15 31 0 39 5 49 27 8 17 17 25 27 21 8 -3 14 1 14 11 0 8 9 20 19 26 11 5 25
26 31 45 6 19 17 36 23 36 7 1 29 3 49 5 l37 3 -2 -84 c-2 -50 -8 -90 -15 -97
-7 -7 -12 -16 -12 -21 0 -13 -27 -37 -43 -37 -14 0 -34 -77 -22 -88 2 -3 -2
-10 -10 -16 -13 -10 -13 -15 1 -41 13 -26 14 -33 1 -55 -7 -14 -15 -42 -16
-62 -1 -34 -44 -146 -59 -158 -28 -21 -70 -83 -66 -95 5 -12 -2 -15 -28 -15
-44 0 -99 -18 -115 -37 -7 -9 -19 -12 -32 -8 -14 4 -28 -1 -42 -14 -12 -11
-43 -23 -68 -26 -25 -4 -59 -8 -76 -11 -299 -43 -816 -11 -984 62 -199 86
-269 138 -320 233 -56 105 -115 394 -94 456 6 17 15 29 20 28 5 -1 17 13 27
32 13 24 28 36 55 42 20 5 38 6 41 3 3 -3 14 -7 25 -7z m680 -13 c3 -5 1 -10
-4 -10 -6 0 -11 5 -11 10 0 6 2 10 4 10 3 0 8 -4 11 -10z m3382 -32 c15 -7 34
-21 41 -30 7 -10 22 -18 33 -18 11 0 29 -5 41 -11 18 -10 19 -8 13 11 -6 19
-5 21 13 11 12 -6 24 -16 27 -22 5 -7 11 -7 20 1 14 12 35 5 100 -35 80 -49
83 -49 113 -35 15 8 32 14 37 15 6 0 16 4 23 8 12 8 13 2 16 -60 1 -26 29 -43
73 -46 31 -2 40 2 48 21 5 12 17 22 25 22 9 0 33 16 55 35 21 20 44 34 52 31
7 -3 14 1 14 9 1 8 2 21 3 27 0 7 10 14 21 16 11 2 28 11 38 20 16 14 19 14
27 2 6 -8 10 -20 10 -27 0 -6 10 -19 22 -27 19 -14 21 -21 15 -93 -8 -100 -49
-257 -86 -332 -95 -187 -341 -283 -821 -321 -122 -9 -375 -6 -455 5 -83 13
-181 38 -197 52 -9 8 -21 12 -27 9 -13 -9 -154 50 -184 76 -12 11 -16 18 -7
15 12 -4 15 3 12 34 -3 25 -9 39 -18 39 -17 0 -18 12 -3 27 8 8 6 13 -8 17
-23 7 -80 126 -82 170 0 17 -11 40 -23 53 -18 19 -20 26 -9 32 9 6 11 18 7 34
-3 14 -2 29 4 32 5 3 10 21 10 39 0 18 6 40 13 49 11 16 18 12 74 -42 34 -32
60 -61 57 -64 -3 -2 18 -5 47 -6 37 0 59 5 81 20 23 17 38 20 69 15 32 -5 39
-3 39 10 0 11 6 15 20 11 12 -3 20 0 20 8 0 10 7 10 33 1 17 -6 38 -15 45 -19
7 -5 21 -6 31 -2 11 3 22 1 26 -5 3 -5 14 -10 23 -10 9 0 30 -7 46 -15 36 -19
50 -19 43 -1 -7 19 40 31 59 15 10 -8 14 -8 14 0 0 6 10 11 23 11 31 0 51 15
44 34 -8 21 -1 20 25 -4 40 -37 52 -18 18 30 -19 27 -18 60 1 60 5 0 9 9 9 20
0 11 4 20 9 20 6 0 27 16 48 35 42 39 50 41 90 23z m-243 -56 c2 -4 1 -14 -5
-22 -6 -10 -9 -11 -9 -2 0 6 -7 12 -15 12 -8 0 -15 5 -15 10 0 12 37 14 44 2z
m806 -133 c0 -5 -4 -9 -10 -9 -5 0 -10 7 -10 16 0 8 5 12 10 9 6 -3 10 -10 10
-16z m214 -2404 c7 -27 6 -29 -9 -14 -9 9 -13 23 -9 33 8 21 9 19 18 -19z
m-24 -181 c0 -8 -5 -12 -10 -9 -6 4 -8 11 -5 16 9 14 15 11 15 -7z m-17 -67
c3 -8 2 -19 -3 -26 -5 -10 -9 -8 -14 4 -3 9 -6 21 -6 26 0 14 17 11 23 -4z
m153 -31 c7 -28 -2 -49 -17 -41 -12 8 -12 65 1 65 5 0 12 -11 16 -24z m-266
-34 c0 -15 -2 -15 -10 -2 -13 20 -13 33 0 25 6 -3 10 -14 10 -23z m220 -47 c0
-45 -12 -60 -24 -29 -5 14 12 74 21 74 2 0 3 -20 3 -45z m-44 -22 c-11 -11
-19 6 -11 24 8 17 8 17 12 0 3 -10 2 -21 -1 -24z m-4629 5 c-3 -8 -6 -5 -6 6
-1 11 2 17 5 13 3 -3 4 -12 1 -19z m4623 -159 c10 -37 9 -47 -14 -91 -15 -29
-26 -66 -26 -90 0 -39 -42 -128 -61 -128 -13 0 -29 35 -29 64 0 43 -15 29 -29
-24 -14 -54 -35 -63 -35 -14 1 89 3 96 19 80 9 -8 21 -13 28 -10 13 5 47 60
47 76 0 6 11 21 25 34 14 13 25 33 25 45 0 17 3 19 14 10 11 -9 15 -5 20 22 4
19 4 42 0 51 -3 9 -4 16 0 16 3 0 10 -19 16 -41z m-410 -140 c0 -23 -16 -25
-24 -4 -3 8 -12 15 -21 15 -21 0 -19 18 3 22 23 6 42 -10 42 -33z m253 -24
c-3 -9 -8 -14 -10 -11 -3 3 -2 9 2 15 9 16 15 13 8 -4z m-83 -100 c0 -8 -2
-15 -4 -15 -2 0 -6 7 -10 15 -3 8 -1 15 4 15 6 0 10 -7 10 -15z m-90 -41 c0
-8 -4 -12 -10 -9 -5 3 -10 13 -10 21 0 8 5 12 10 9 6 -3 10 -13 10 -21z m214
-29 c-4 -8 -8 -15 -10 -15 -2 0 -4 7 -4 15 0 8 4 15 10 15 5 0 7 -7 4 -15z
m-144 -31 c0 -8 -4 -14 -10 -14 -5 0 -10 9 -10 21 0 11 5 17 10 14 6 -3 10
-13 10 -21z m37 -66 c-3 -7 -5 -2 -5 12 0 14 2 19 5 13 2 -7 2 -19 0 -25z
m-3987 -242 c0 -16 -30 -50 -37 -42 -4 4 27 55 35 56 1 0 2 -6 2 -14z m1390
-145 c-5 -11 -10 -33 -10 -49 0 -28 -3 -30 -40 -30 -22 0 -40 2 -40 6 0 6 90
91 98 92 1 0 -2 -9 -8 -19z m2148 -109 c2 -7 -2 -10 -12 -6 -9 3 -16 11 -16
16 0 13 23 5 28 -10z m648 -7 c7 -5 10 -14 7 -19 -3 -4 -5 -33 -4 -63 0 -30
-4 -64 -11 -76 -11 -21 -21 -194 -18 -336 0 -35 -3 -68 -9 -75 -5 -6 -12 -26
-16 -43 -3 -18 -11 -33 -16 -33 -5 0 -9 -7 -9 -16 0 -8 4 -13 9 -10 10 7 23
-22 16 -34 -3 -5 -12 -7 -20 -4 -9 4 -17 -1 -21 -12 -12 -38 -27 -63 -35 -58
-11 7 -27 -28 -21 -46 3 -11 -2 -9 -18 5 -13 11 -20 15 -17 9 4 -7 -1 -18 -10
-25 -9 -8 -14 -9 -10 -3 4 7 -1 14 -11 16 -15 4 -18 1 -14 -20 3 -17 1 -23 -7
-18 -6 4 -8 12 -5 18 4 7 2 8 -4 4 -14 -9 -16 -36 -3 -36 12 0 -13 -50 -31
-61 -10 -7 -10 -9 0 -9 6 0 12 -9 12 -19 0 -10 7 -22 16 -25 13 -5 14 -9 4
-21 -7 -8 -9 -15 -5 -15 4 0 3 -6 -2 -12 -5 -7 -10 -29 -11 -48 -1 -19 -7 -45
-14 -58 -10 -19 -9 -25 2 -33 12 -8 12 -12 3 -16 -7 -2 -13 -11 -13 -19 0 -9
-11 -14 -32 -14 -24 0 -43 -10 -70 -36 -36 -34 -66 -38 -54 -7 3 8 1 11 -4 8
-6 -3 -10 -13 -10 -21 0 -8 -4 -14 -10 -14 -5 0 -10 7 -10 16 0 8 -5 12 -10 9
-6 -4 -7 -11 -4 -17 4 -7 2 -8 -5 -4 -6 4 -9 12 -6 17 4 5 1 9 -4 9 -6 0 -11
-4 -11 -10 0 -5 -6 -10 -14 -10 -8 0 -16 -5 -18 -11 -4 -13 -47 7 -61 29 -5 7
-13 9 -19 6 -7 -5 -9 -2 -5 9 3 9 1 18 -6 21 -7 2 -2 5 9 5 12 1 25 8 28 17 4
12 2 15 -9 10 -8 -3 -14 -2 -14 2 1 4 1 15 0 25 -1 22 -21 23 -21 1 0 -13 -7
-15 -32 -10 -42 8 -45 13 -22 30 15 12 17 17 7 27 -18 19 -16 29 5 22 32 -12
82 -58 77 -71 -3 -8 0 -10 6 -6 6 3 9 15 6 25 -3 11 -1 19 5 19 5 0 6 5 3 10
-4 6 -10 8 -15 5 -4 -3 -13 1 -19 9 -9 11 -6 15 14 20 14 4 23 11 20 16 -3 5
0 7 8 4 9 -3 18 8 27 36 11 34 17 40 42 40 22 0 28 4 26 18 -2 11 2 16 12 14
11 -3 10 1 -4 16 -13 15 -15 25 -8 39 11 20 80 83 91 83 4 0 15 15 24 34 13
28 20 33 38 29 20 -6 21 -3 14 36 -7 41 1 51 23 29 17 -17 27 -2 15 24 -13 29
-14 44 -2 40 5 -1 9 3 9 9 0 6 7 8 17 5 14 -6 12 -2 -5 17 -18 19 -19 26 -9
36 9 11 9 14 -1 18 -10 4 -9 8 5 18 14 10 15 16 5 27 -9 12 -7 17 13 28 17 9
22 17 15 24 -10 13 -8 41 3 52 4 4 7 20 7 35 0 15 5 31 11 34 5 4 15 17 20 28
21 45 39 72 49 70 5 -2 10 10 10 25 0 16 3 32 7 36 4 3 8 14 9 23 7 42 17 68
33 82 10 9 26 30 36 48 19 32 30 36 51 18z m-2642 -209 c-3 -9 -10 -16 -15
-16 -11 0 -12 43 -2 54 10 10 24 -20 17 -38z m90 -24 c-8 -20 -8 -16 0 -64 4
-22 3 -38 -3 -38 -17 0 -23 79 -9 127 11 41 13 43 16 19 2 -15 0 -35 -4 -44z
m-119 -57 c-8 -60 -22 -80 -29 -43 -14 70 -14 86 1 108 14 20 17 21 25 6 5 -9
6 -41 3 -71z m42 18 c-3 -10 -5 -2 -5 17 0 19 2 27 5 18 2 -10 2 -26 0 -35z
m110 -5 c-3 -8 -6 -5 -6 6 -1 11 2 17 5 13 3 -3 4 -12 1 -19z m84 -45 c-10
-17 -10 -16 -11 3 0 23 13 41 18 25 2 -6 -1 -18 -7 -28z m-114 -55 c-3 -7 -5
-2 -5 12 0 14 2 19 5 13 2 -7 2 -19 0 -25z m-120 0 c-3 -8 -6 -5 -6 6 -1 11 2
17 5 13 3 -3 4 -12 1 -19z m283 -38 c0 -5 -2 -10 -4 -10 -3 0 -8 5 -11 10 -3
6 -1 10 4 10 6 0 11 -4 11 -10z m-34 -27 c-10 -10 -19 5 -10 18 6 11 8 11 12
0 2 -7 1 -15 -2 -18z m91 -45 c-3 -8 -6 -5 -6 6 -1 11 2 17 5 13 3 -3 4 -12 1
-19z m1321 -23 c-3 -3 -9 2 -12 12 -6 14 -5 15 5 6 7 -7 10 -15 7 -18z m-248
-89 c0 -6 -7 -1 -15 10 -8 10 -14 26 -14 34 0 16 28 -28 29 -44z m-1053 -38
c-3 -7 -5 -2 -5 12 0 14 2 19 5 13 2 -7 2 -19 0 -25z m948 22 c3 -5 1 -10 -4
-10 -6 0 -11 5 -11 10 0 6 2 10 4 10 3 0 8 -4 11 -10z m1020 -50 c3 -5 1 -10
-4 -10 -6 0 -11 5 -11 10 0 6 2 10 4 10 3 0 8 -4 11 -10z m-3767 -206 c31 -22
58 -82 73 -164 7 -38 16 -70 21 -70 4 0 8 -5 8 -12 0 -6 -9 -3 -20 7 -11 10
-20 13 -20 7 0 -6 -7 -9 -15 -5 -9 3 -15 2 -14 -3 4 -25 -4 -34 -29 -34 -36 0
-55 21 -75 85 -21 65 -12 185 13 170 6 -4 10 -3 9 2 -6 36 13 43 49 17z m3542
-160 c0 -8 -5 -12 -10 -9 -6 4 -8 11 -5 16 9 14 15 11 15 -7z m-3223 -110 c83
-41 113 -72 112 -117 -1 -18 4 -45 10 -60 6 -16 11 -42 11 -60 0 -28 -1 -29
-13 -13 -10 13 -20 16 -35 12 -21 -7 -31 -26 -14 -26 5 0 18 -9 31 -21 15 -14
20 -27 15 -41 -4 -13 -2 -18 4 -14 6 4 8 -2 5 -15 -3 -11 -16 -24 -29 -29 -17
-7 -21 -14 -17 -31 4 -14 2 -20 -4 -16 -6 4 -16 0 -23 -8 -13 -16 -35 -21 -26
-6 9 14 -16 20 -37 9 -12 -6 -19 -5 -23 6 -3 8 -16 17 -30 20 -15 4 -24 14
-24 26 0 14 -5 18 -17 13 -11 -4 -14 -3 -9 5 7 12 -13 52 -27 52 -15 0 -38 30
-32 41 4 6 -2 17 -13 25 -14 10 -19 22 -16 41 2 16 7 48 9 72 3 25 10 50 16
57 5 6 8 16 7 22 -5 15 61 92 80 92 9 0 49 -16 89 -36z"/>
<path d="M3420 9650 c0 -5 6 -11 13 -11 6 -1 23 -3 37 -4 14 -1 34 -5 45 -9
11 -3 2 3 -20 14 -44 21 -75 26 -75 10z"/>
<path d="M4000 9650 c8 -5 24 -9 35 -9 l20 0 -20 9 c-11 5 -27 9 -35 9 -13 1
-13 0 0 -9z"/>
<path d="M5768 9643 c7 -3 16 -2 19 1 4 3 -2 6 -13 5 -11 0 -14 -3 -6 -6z"/>
<path d="M3095 9559 c-10 -15 1 -22 24 -14 12 3 19 11 16 16 -8 12 -32 11 -40
-2z"/>
<path d="M3060 9550 c-9 -6 -10 -10 -3 -10 6 0 15 5 18 10 8 12 4 12 -15 0z"/>
<path d="M2961 9536 c-10 -12 -8 -13 9 -9 25 7 37 23 17 23 -8 0 -20 -6 -26
-14z"/>
<path d="M2986 9485 c-11 -8 -15 -15 -9 -15 19 0 43 12 43 21 0 13 -12 11 -34
-6z"/>
<path d="M5195 9079 c-4 -6 1 -16 11 -24 20 -14 30 -4 20 20 -6 18 -22 20 -31
4z"/>
<path d="M6020 9080 c0 -5 5 -10 10 -10 6 0 10 5 10 10 0 6 -4 10 -10 10 -5 0
-10 -4 -10 -10z"/>
<path d="M6055 9074 c-9 -9 -13 -19 -10 -22 3 -3 15 4 28 16 12 12 16 22 10
22 -6 0 -19 -7 -28 -16z"/>
<path d="M5740 8915 c-11 -13 -10 -14 4 -9 9 3 16 10 16 15 0 13 -6 11 -20 -6z"/>
<path d="M5525 8899 c-4 -6 -5 -12 -2 -15 2 -3 7 2 10 11 7 17 1 20 -8 4z"/>
<path d="M5375 8876 c-5 -20 -4 -31 6 -37 18 -11 19 -9 10 31 l-8 35 -8 -29z"/>
<path d="M2325 8850 c-3 -5 -1 -10 4 -10 6 0 11 5 11 10 0 6 -2 10 -4 10 -3 0
-8 -4 -11 -10z"/>
<path d="M5127 8643 c-4 -3 -7 -20 -7 -36 0 -37 10 -30 16 12 5 31 3 37 -9 24z"/>
<path d="M5024 8589 c-17 -6 -22 -16 -22 -47 -1 -35 2 -39 23 -39 29 0 34 12
26 58 -5 32 -9 35 -27 28z"/>
<path d="M7035 9190 c-3 -5 -1 -10 4 -10 6 0 11 5 11 10 0 6 -2 10 -4 10 -3 0
-8 -4 -11 -10z"/>
<path d="M4130 7529 c0 -5 5 -7 10 -4 6 3 10 8 10 11 0 2 -4 4 -10 4 -5 0 -10
-5 -10 -11z"/>
<path d="M3760 7520 c-8 -5 -12 -12 -9 -15 8 -8 39 5 39 16 0 11 -11 11 -30
-1z"/>
<path d="M7276 2882 c-9 -26 -1 -41 13 -26 5 5 5 18 1 29 -7 19 -7 19 -14 -3z"/>
<path d="M6853 2430 c-5 -22 -7 -37 -2 -35 9 6 23 64 17 70 -2 3 -9 -13 -15
-35z"/>
<path d="M5466 5772 c-28 -6 -131 -62 -200 -108 -90 -60 -130 -84 -143 -84
-21 0 -15 17 7 23 11 3 20 12 20 21 0 19 -31 21 -48 4 -9 -9 -18 -6 -38 13
-14 13 -38 25 -52 26 -42 3 -66 8 -80 17 -7 4 -20 2 -28 -5 -12 -10 -20 -10
-34 -1 -13 8 -27 9 -44 2 -31 -11 -47 -8 -124 24 -33 14 -69 25 -79 24 -27 -2
-83 13 -83 24 0 5 -69 8 -157 8 -87 -1 -166 2 -175 5 -20 8 -24 -5 -6 -23 6
-6 13 -32 14 -57 1 -25 7 -51 13 -59 6 -7 46 -26 89 -41 102 -35 152 -57 152
-64 0 -4 -8 -14 -17 -23 -10 -9 -28 -27 -41 -41 -35 -39 1 -28 43 13 19 19 35
29 35 23 0 -6 -7 -16 -15 -23 -8 -7 -15 -20 -15 -30 0 -9 -9 -25 -20 -35 -11
-10 -20 -24 -20 -31 0 -7 -9 -18 -20 -24 -11 -6 -20 -16 -20 -23 -1 -24 -47
-66 -67 -61 -14 4 -37 -11 -78 -50 -32 -30 -62 -53 -67 -50 -14 9 -36 -15 -43
-45 -4 -18 -22 -39 -50 -59 -25 -17 -45 -38 -45 -47 0 -8 -5 -15 -11 -15 -6 0
-8 9 -4 20 10 30 -8 24 -44 -15 -17 -19 -36 -35 -41 -35 -15 0 -12 26 5 40 23
19 18 40 -9 40 -14 0 -30 -10 -40 -25 -9 -13 -22 -22 -30 -19 -8 3 -16 -4 -20
-20 -6 -26 -29 -35 -41 -15 -4 5 0 18 8 27 17 20 31 72 19 72 -5 0 -19 -11
-33 -26 -17 -18 -19 -23 -6 -18 22 8 21 3 -4 -45 -11 -22 -18 -45 -14 -51 3
-5 -1 -10 -10 -10 -13 0 -15 8 -12 40 3 29 0 40 -10 40 -7 0 -13 7 -13 15 0
21 -10 18 -50 -15 -19 -17 -45 -30 -58 -30 -15 0 -26 -7 -29 -20 -7 -27 -22
-25 -33 5 -12 31 -32 33 -28 3 2 -19 -2 -24 -25 -26 -18 -2 -33 3 -41 13 -9
13 -11 9 -11 -26 0 -33 -6 -46 -28 -65 -16 -13 -34 -21 -40 -17 -7 4 -6 -1 2
-10 12 -15 11 -21 -9 -42 -25 -26 -14 -32 23 -14 12 5 4 -6 -18 -25 -22 -20
-44 -36 -50 -36 -5 0 -10 -10 -10 -22 -1 -13 -4 -33 -9 -45 -6 -18 -4 -22 8
-17 13 5 15 0 9 -27 -5 -27 -4 -31 10 -26 13 5 17 1 17 -16 0 -12 7 -31 15
-41 8 -10 12 -23 9 -27 -12 -20 9 -30 27 -13 18 16 19 16 19 0 0 -10 -5 -26
-10 -37 -13 -23 5 -27 18 -3 8 14 12 13 37 -10 31 -29 72 -34 81 -11 9 24 45
40 54 25 18 -29 167 -10 212 27 7 7 25 13 40 15 14 2 33 10 42 17 12 10 28 11
75 3 33 -6 76 -8 96 -5 26 4 41 1 55 -12 12 -11 28 -15 42 -12 13 3 79 1 148
-4 69 -4 137 -8 153 -9 18 0 27 -5 27 -16 0 -13 6 -15 30 -11 16 4 32 2 36 -4
3 -6 19 -7 35 -4 25 6 29 4 29 -17 l0 -23 18 22 c17 21 19 21 87 7 39 -8 86
-17 105 -21 19 -3 40 -9 45 -13 11 -9 71 -7 127 4 31 7 38 5 47 -12 6 -12 12
-31 12 -44 1 -19 2 -18 8 6 5 23 15 32 46 43 22 7 49 17 60 23 11 5 57 18 102
29 45 11 88 23 95 28 27 17 205 46 221 36 6 -4 40 -8 76 -9 36 -2 93 -5 126
-8 39 -3 76 1 105 11 38 13 133 22 257 26 17 0 62 -5 100 -13 66 -12 69 -14
90 -56 l22 -43 -25 -20 c-23 -18 -32 -41 -17 -41 4 0 22 14 40 32 26 25 36 29
45 20 21 -21 52 -13 70 19 10 17 22 27 28 24 5 -3 20 1 32 9 20 14 22 14 32
-6 13 -25 31 -29 32 -8 3 48 5 52 19 46 13 -4 14 3 11 42 -5 55 8 79 32 60 13
-11 15 -9 9 22 -3 19 -3 29 0 23 9 -24 23 -13 17 13 -5 20 -2 26 15 31 25 6
27 18 6 27 -8 3 -15 12 -15 21 0 8 -7 15 -15 15 -8 0 -15 4 -15 9 0 5 -7 17
-16 26 -9 9 -14 18 -11 22 3 3 18 -7 32 -22 61 -60 14 -1 -56 73 -65 67 -76
83 -72 105 6 31 -28 66 -64 67 -31 0 -29 -11 7 -35 17 -11 33 -31 36 -45 3
-14 10 -36 15 -49 5 -13 8 -26 5 -28 -2 -2 -12 16 -21 41 -9 24 -30 56 -46 70
-16 15 -29 33 -29 40 0 8 -5 18 -12 22 -8 5 -9 0 -6 -14 7 -26 9 -26 -35 -7
-20 8 -43 27 -50 41 -13 25 -14 25 -12 -19 1 -24 5 -49 9 -56 4 -6 3 -11 -3
-11 -6 0 -15 9 -21 19 -14 27 -44 35 -70 19 -19 -12 -24 -10 -46 17 l-24 30 0
-26 c0 -15 -7 -29 -15 -33 -8 -3 -15 -16 -15 -29 0 -13 -3 -27 -7 -30 -9 -10
-32 25 -33 51 0 14 -8 26 -22 31 -31 12 -39 5 -32 -27 l7 -27 -25 23 -26 23 8
-41 c8 -44 -5 -66 -16 -25 -5 20 -12 25 -39 25 -19 0 -36 4 -40 9 -3 6 9 7 30
4 42 -7 43 -1 10 43 -14 18 -25 38 -25 44 0 7 -7 10 -15 6 -8 -3 -15 -1 -15 4
0 6 5 10 12 10 18 0 -1 14 -21 15 -12 1 -22 -6 -25 -18 -7 -27 -24 -12 -32 28
-4 23 -13 37 -27 41 -31 10 -77 46 -77 60 0 7 -16 22 -35 34 -19 12 -35 30
-35 40 0 21 -25 44 -39 35 -6 -3 -21 4 -33 15 l-23 21 28 -6 c26 -7 38 7 17
20 -19 12 -10 26 12 19 21 -6 22 -6 7 16 -8 13 -30 31 -47 40 -18 10 -37 22
-44 28 -7 5 -22 12 -33 14 -15 4 -9 10 29 27 37 16 46 24 38 34 -9 10 -1 16
35 26 75 20 110 40 124 72 13 34 10 40 -42 69 -97 54 -178 75 -233 62z m-811
-62 c3 -6 -1 -7 -9 -4 -18 7 -21 14 -7 14 6 0 13 -4 16 -10z m105 -180 c8 -5
11 -12 7 -16 -4 -4 -15 0 -24 9 -18 18 -8 23 17 7z m779 -84 c10 -12 8 -13 -8
-9 -12 3 -21 9 -21 14 0 14 16 11 29 -5z m66 -145 c10 -17 -12 -21 -25 -6 -10
12 -10 15 3 15 9 0 18 -4 22 -9z m-796 -187 c10 -28 11 -39 2 -42 -6 -2 -11
-24 -11 -48 0 -44 0 -44 23 -29 13 8 27 12 30 9 4 -4 14 -1 24 7 9 8 14 9 10
3 -4 -6 2 -19 12 -28 11 -10 25 -31 32 -48 10 -23 14 -27 21 -15 5 9 16 13 28
10 12 -3 20 0 20 7 0 19 32 39 62 40 21 0 29 6 34 25 7 28 8 29 35 15 10 -6
19 -19 19 -29 0 -13 10 -20 32 -25 17 -3 46 -17 63 -31 19 -14 49 -25 71 -27
24 -1 44 -9 52 -20 11 -15 17 -17 29 -7 8 7 12 21 10 31 -9 33 25 3 37 -33 6
-19 16 -33 21 -32 6 1 17 25 25 53 l15 52 23 -40 c12 -22 22 -47 22 -55 0 -9
5 -19 11 -23 8 -5 10 6 5 37 -3 24 -2 58 3 74 5 17 10 25 10 18 1 -6 8 -19 17
-27 8 -9 11 -16 5 -16 -6 0 -11 -7 -11 -15 0 -8 5 -15 11 -15 6 0 9 -6 6 -14
-8 -21 2 -26 29 -16 24 10 35 -3 12 -14 -7 -3 5 -5 26 -3 32 2 41 -2 45 -18 3
-11 14 -20 24 -21 61 -3 66 -4 61 -19 -4 -9 0 -15 10 -15 9 0 16 7 16 15 0 16
38 40 48 30 4 -4 -3 -14 -15 -22 -32 -21 -29 -43 4 -43 21 0 24 -3 15 -12 -17
-17 -15 -25 8 -31 12 -3 24 1 29 11 8 13 13 14 22 5 9 -9 8 -16 -2 -31 -8 -11
-16 -19 -19 -19 -3 0 -26 -10 -52 -22 -58 -26 -143 -28 -170 -4 -10 9 -31 16
-48 15 -16 0 -32 4 -35 9 -4 5 -15 9 -26 9 -10 0 -28 5 -39 10 -11 6 -29 14
-40 20 -15 7 -22 6 -29 -8 -7 -10 -14 -13 -18 -7 -5 6 -15 10 -23 10 -10 0
-14 8 -12 24 2 23 1 23 -15 9 -10 -9 -28 -19 -40 -22 -11 -4 -24 -14 -27 -22
-3 -8 -11 -12 -17 -9 -6 4 -49 7 -96 8 -70 0 -87 -3 -95 -16 -10 -18 -38 -22
-53 -8 -6 4 -61 1 -125 -9 l-115 -17 -46 29 c-53 32 -59 34 -59 14 0 -23 -11
-25 -80 -10 -36 8 -85 13 -111 12 -25 -1 -50 1 -56 5 -6 4 -18 4 -26 1 -12 -4
-14 0 -10 15 3 12 1 21 -6 21 -6 0 -11 -4 -11 -10 0 -5 -11 -10 -25 -10 -14 0
-25 5 -25 10 0 17 -22 11 -46 -11 -12 -11 -29 -21 -37 -23 -9 -1 -25 -10 -37
-21 -21 -19 -29 -8 -8 13 17 17 -4 15 -28 -3 -10 -8 -34 -15 -53 -15 l-35 0
29 30 c16 17 34 30 41 30 6 0 17 7 24 15 11 13 10 14 -6 9 -16 -6 -16 -4 4 15
15 15 29 20 42 16 14 -4 18 -2 15 7 -3 7 7 21 22 30 21 13 23 18 11 18 -10 0
-18 4 -18 8 0 11 39 12 45 1 13 -21 36 -7 51 31 12 29 20 38 28 31 15 -13 52
-5 98 20 10 5 24 9 32 9 8 0 20 8 25 18 9 14 12 15 20 3 7 -11 11 -9 21 8 6
13 17 20 25 18 7 -3 21 1 32 8 17 12 22 11 38 -7 l18 -21 14 27 c8 16 12 39 9
52 -4 13 -3 48 0 79 8 62 20 62 43 -1z m-709 -78 c0 -2 -8 -10 -17 -17 -16
-13 -17 -12 -4 4 13 16 21 21 21 13z m21 -23 c-20 -37 -40 -59 -41 -44 0 8 10
25 22 38 26 27 32 29 19 6z m-418 -34 c-6 -6 -9 -18 -6 -27 4 -10 2 -13 -5 -8
-16 10 -15 43 1 49 17 6 23 -1 10 -14z m1775 -53 c3 -12 -1 -17 -10 -14 -7 3
-15 13 -16 22 -3 12 1 17 10 14 7 -3 15 -13 16 -22z m-1522 -14 c-18 -16 -18
-16 -6 6 6 13 14 21 18 18 3 -4 -2 -14 -12 -24z m2141 -9 c-3 -10 -5 -4 -5 12
0 17 2 24 5 18 2 -7 2 -21 0 -30z m328 27 c3 -5 1 -10 -4 -10 -6 0 -11 5 -11
10 0 6 2 10 4 10 3 0 8 -4 11 -10z m-2593 -32 c-7 -7 -12 -8 -12 -2 0 6 3 14
7 17 3 4 9 5 12 2 2 -3 -1 -11 -7 -17z m324 -127 c-4 -5 -1 -11 5 -13 7 -2 -2
-19 -21 -41 -18 -21 -26 -37 -19 -37 7 0 4 -7 -8 -15 -15 -10 -32 -13 -50 -9
-19 5 -23 9 -12 13 30 11 104 83 91 88 -13 5 -7 23 9 23 6 0 8 -4 5 -9z"/>
<path d="M5300 4811 c0 -11 4 -21 9 -21 18 0 21 18 6 30 -13 10 -15 9 -15 -9z"/>
<path d="M4300 4735 c-8 -9 -8 -15 -2 -15 12 0 26 19 19 26 -2 2 -10 -2 -17
-11z"/>
<path d="M5215 4730 c-3 -5 3 -10 14 -10 12 0 21 5 21 10 0 6 -6 10 -14 10 -8
0 -18 -4 -21 -10z"/>
<path d="M7872 5714 c4 -21 22 -23 26 -1 2 10 -3 17 -13 17 -10 0 -15 -6 -13
-16z"/>
<path d="M4961 5704 c0 -11 3 -14 6 -6 3 7 2 16 -1 19 -3 4 -6 -2 -5 -13z"/>
<path d="M7440 5281 c0 -10 7 -24 15 -31 12 -10 15 -10 15 3 0 23 -11 47 -21
47 -5 0 -9 -8 -9 -19z"/>
<path d="M7420 5221 c0 -17 12 -41 21 -41 5 0 9 11 9 25 0 16 -6 25 -15 25 -8
0 -15 -4 -15 -9z"/>
<path d="M7380 5171 c0 -12 5 -21 10 -21 6 0 10 6 10 14 0 8 -4 18 -10 21 -5
3 -10 -3 -10 -14z"/>
<path d="M5995 5070 c-3 -5 -1 -10 4 -10 6 0 11 5 11 10 0 6 -2 10 -4 10 -3 0
-8 -4 -11 -10z"/>
<path d="M3995 5060 c-3 -5 1 -10 9 -10 9 0 16 5 16 10 0 6 -4 10 -9 10 -6 0
-13 -4 -16 -10z"/>
<path d="M6380 5052 c0 -5 9 -17 20 -27 19 -18 20 -17 20 2 0 12 -7 24 -16 27
-21 8 -24 8 -24 -2z"/>
<path d="M5970 5041 c0 -5 5 -13 10 -16 6 -3 10 -2 10 4 0 5 -4 13 -10 16 -5
3 -10 2 -10 -4z"/>
<path d="M7190 4962 c0 -4 4 -13 9 -20 7 -11 9 -11 14 1 3 9 -1 18 -9 21 -8 3
-14 2 -14 -2z"/>
<path d="M6580 4956 c0 -4 16 -23 35 -43 19 -20 35 -32 35 -26 0 5 -16 24 -35
43 -19 19 -35 31 -35 26z"/>
<path d="M3396 4873 c-6 -14 -5 -15 5 -6 7 7 10 15 7 18 -3 3 -9 -2 -12 -12z"/>
<path d="M6890 4262 c0 -24 53 -113 62 -104 6 6 1 24 -12 50 -22 42 -50 73
-50 54z"/>
<path d="M3245 4230 c-3 -5 -1 -10 4 -10 6 0 11 5 11 10 0 6 -2 10 -4 10 -3 0
-8 -4 -11 -10z"/>
<path d="M6870 4165 c0 -8 4 -15 10 -15 5 0 7 7 4 15 -4 8 -8 15 -10 15 -2 0
-4 -7 -4 -15z"/>
<path d="M4520 4135 c-20 -25 -4 -29 21 -6 18 16 19 21 7 21 -9 0 -21 -7 -28
-15z"/>
<path d="M6825 4063 c10 -42 22 -47 17 -8 -2 19 -9 35 -14 35 -6 0 -7 -11 -3
-27z"/>
<path d="M6130 3990 c0 -5 5 -10 10 -10 6 0 10 5 10 10 0 6 -4 10 -10 10 -5 0
-10 -4 -10 -10z"/>
<path d="M4448 3903 c7 -3 16 -2 19 1 4 3 -2 6 -13 5 -11 0 -14 -3 -6 -6z"/>
<path d="M3545 3781 c-6 -11 9 -23 19 -14 9 9 7 23 -3 23 -6 0 -12 -4 -16 -9z"/>
<path d="M6410 3520 c0 -5 5 -10 10 -10 6 0 10 5 10 10 0 6 -4 10 -10 10 -5 0
-10 -4 -10 -10z"/>
<path d="M4607 3363 c-4 -3 -7 -11 -7 -17 0 -6 5 -5 12 2 6 6 9 14 7 17 -3 3
-9 2 -12 -2z"/>
<path d="M5131 3234 c0 -11 3 -14 6 -6 3 7 2 16 -1 19 -3 4 -6 -2 -5 -13z"/>
<path d="M5202 3209 c1 -13 8 -23 13 -21 15 3 12 35 -3 40 -9 3 -13 -3 -10
-19z"/>
<path d="M5742 3064 c2 -15 8 -29 14 -31 7 -2 10 6 6 22 -6 35 -24 44 -20 9z"/>
<path d="M5516 3027 c3 -10 9 -15 12 -12 3 3 0 11 -7 18 -10 9 -11 8 -5 -6z"/>
<path d="M5711 3014 c0 -11 3 -14 6 -6 3 7 2 16 -1 19 -3 4 -6 -2 -5 -13z"/>
</g>
</svg>
